<svg id="Layer_1" data-name="Layer 1" xmlns="http://www.w3.org/2000/svg" xmlns:xlink="http://www.w3.org/1999/xlink" viewBox="0 0 300 90"><defs><style>.cls-1,.cls-3{fill:#396993;}.cls-2{fill:url(#radial-gradient);}.cls-3{font-size:28px;font-family:MyriadPro-Regular, Myriad Pro;}.cls-4{letter-spacing:0em;}</style><radialGradient id="radial-gradient" cx="-108.04" cy="302.62" r="0.78" gradientTransform="matrix(-44.83, -50.81, -77.11, 68.05, 18544.56, -26025.68)" gradientUnits="userSpaceOnUse"><stop offset="0" stop-color="#3fc"/><stop offset="1" stop-color="#0f7fff"/></radialGradient></defs><path class="cls-1" d="M109.41,27.26A7.33,7.33,0,0,1,115,29.5a8.33,8.33,0,0,1,2.12,6V47.65H111V36a3.52,3.52,0,0,0-.75-2.38,2.7,2.7,0,0,0-2.18-.88,2.9,2.9,0,0,0-2.34,1,4.17,4.17,0,0,0-.83,2.74V47.65h-6.1V36a3.52,3.52,0,0,0-.76-2.38,2.7,2.7,0,0,0-2.18-.88,2.87,2.87,0,0,0-2.33,1,4.12,4.12,0,0,0-.84,2.74V47.65h-6.1V27.81h6.1v1.83q1.66-2.38,5.45-2.38a6,6,0,0,1,5.34,2.62q1.86-2.62,5.9-2.62Z"/><path class="cls-1" d="M138.21,45.17a11.15,11.15,0,0,1-15.3,0,9.94,9.94,0,0,1-3.13-7.44,9.94,9.94,0,0,1,3.13-7.44,11.17,11.17,0,0,1,15.3,0,10.38,10.38,0,0,1,0,14.88Zm-11-4.07a4.54,4.54,0,0,0,3.33,1.31,4.62,4.62,0,0,0,3.34-1.31,4.91,4.91,0,0,0,0-6.74,4.9,4.9,0,0,0-6.67,0,4.88,4.88,0,0,0,0,6.74Z"/><path class="cls-1" d="M150.39,47.65h-6.48V27.7h6.16v4.81c1-3.68,3.55-5.31,6-5.31a6,6,0,0,1,3.22.76l-1.76,6.15a7.6,7.6,0,0,0-3.18-.59c-2.44,0-3.95,1.42-3.95,7.27v6.86Z"/><path class="cls-1" d="M174.84,27.81h6.1V47.65h-6.1V45.3c-.77,2-3.46,2.9-6.06,2.9a9.22,9.22,0,0,1-6.88-3,10.45,10.45,0,0,1-2.85-7.44,10.45,10.45,0,0,1,2.85-7.44,8.93,8.93,0,0,1,6.88-3c4.63.08,6.17,2.29,6.06,3.4ZM166.5,41.26a5.33,5.33,0,0,0,7,0,4.72,4.72,0,0,0,1.34-3.53,4.72,4.72,0,0,0-1.34-3.53,5.33,5.33,0,0,0-7,0,4.69,4.69,0,0,0-1.35,3.53A4.69,4.69,0,0,0,166.5,41.26Z"/><path class="cls-1" d="M185.46,47.65v-29h6.1v29Z"/><path class="cls-1" d="M201.79,25a3.71,3.71,0,0,1-5.17,0,3.48,3.48,0,0,1,0-5,3.71,3.71,0,0,1,5.17,0,3.5,3.5,0,0,1,0,5Zm-5.64,22.64V27.81h6.1V47.65Z"/><path class="cls-1" d="M212.52,33.6c0,.4.35.72,1,1s1.52.5,2.5.75a22.82,22.82,0,0,1,2.93,1,5.9,5.9,0,0,1,2.5,2,5.55,5.55,0,0,1,1,3.43,5.48,5.48,0,0,1-2.44,4.86,10.54,10.54,0,0,1-6,1.65q-6.42,0-8.74-4.72l5.29-2.94a3.3,3.3,0,0,0,3.45,2.34c1.47,0,2.2-.41,2.2-1.23,0-.4-.34-.73-1-1a23.71,23.71,0,0,0-2.5-.78,21.51,21.51,0,0,1-2.93-1,6.22,6.22,0,0,1-2.5-1.92,5.06,5.06,0,0,1-1-3.22,5.64,5.64,0,0,1,2.3-4.8,9.23,9.23,0,0,1,5.68-1.7,9.66,9.66,0,0,1,4.59,1.09,8.49,8.49,0,0,1,3.34,3.15L217,34.23a3,3,0,0,0-2.72-1.75c-1.17,0-1.71.37-1.71,1.11Z"/><path class="cls-2" d="M69.78,22.5A18.4,18.4,0,0,0,54.69,11.88a17.23,17.23,0,0,0-9.34,1.69,17.56,17.56,0,0,0-5.09,3.88,16.87,16.87,0,0,0-11.71-5.83A18.75,18.75,0,0,0,8.79,26.86a25.51,25.51,0,0,0,2.75,16.85A28.09,28.09,0,0,0,23,55.76a3.58,3.58,0,0,0,4.2-5.63A24.8,24.8,0,0,1,25,47.21a27.17,27.17,0,0,1-1.72-3,26.11,26.11,0,0,1-2.72-9.55,11,11,0,0,1,1-5.69,7.46,7.46,0,0,1,3.86-3.82A6.68,6.68,0,0,1,33,26.88c1.34,1.38,1.95,3.3,2.63,5.08.05.13.1.25.16.37a4.52,4.52,0,0,0,8.72-.47c0-.16.07-.32.11-.49l0-.07s0-.06,0-.09A10.57,10.57,0,0,1,45,30a9.86,9.86,0,0,1,2.15-3.45,6.29,6.29,0,0,1,5.11-2.09,8,8,0,0,1,3.19.84c5,2.7,4.44,9.79,2.32,14.46a25.92,25.92,0,0,1-6.54,8.37c-.65.59-1.4,1.23-2.08,1.77a7.47,7.47,0,0,0-1.45,10.3,7.09,7.09,0,0,0,10.9.57c.59-.58,1.16-1.19,1.73-1.81C66,52.55,71.15,43.08,72,34.36A23,23,0,0,0,69.78,22.5Z"/><text class="cls-3" transform="translate(154.5 74.55)">and Ch<tspan class="cls-4" x="82.54" y="0">r</tspan><tspan x="91.81" y="0">is ;)</tspan></text></svg>