<svg id="Layer_1" data-name="Layer 1" xmlns="http://www.w3.org/2000/svg" xmlns:xlink="http://www.w3.org/1999/xlink" viewBox="0 0 300 90"><defs><style>.cls-1{fill:url(#radial-gradient);}.cls-2,.cls-4{fill:#fff;}.cls-3{fill:url(#radial-gradient-2);}.cls-4{font-size:28px;font-family:MyriadPro-Regular, Myriad Pro;}.cls-5{letter-spacing:0em;}</style><radialGradient id="radial-gradient" cx="-108.02" cy="302.35" r="0.78" gradientTransform="matrix(-40.9, -57.99, -88.01, 62.07, 22249.03, -24970.29)" gradientUnits="userSpaceOnUse"><stop offset="0" stop-color="#00ffce"/><stop offset="1" stop-color="#56beff"/></radialGradient><radialGradient id="radial-gradient-2" cx="-108.09" cy="302.59" r="0.78" gradientTransform="matrix(-44.83, -50.81, -77.11, 68.05, 18544.56, -26025.68)" gradientUnits="userSpaceOnUse"><stop offset="0" stop-color="#3fc"/><stop offset="1" stop-color="#0f7fff"/></radialGradient></defs><path class="cls-1" d="M73.83,23.07A18.51,18.51,0,0,0,58.66,12.41,17.06,17.06,0,0,0,44.17,18,16.93,16.93,0,0,0,32.4,12.15,18.84,18.84,0,0,0,12.54,27.46,25.65,25.65,0,0,0,15.3,44.38,28.2,28.2,0,0,0,26.82,56.49,3.6,3.6,0,0,0,31,50.83a24.06,24.06,0,0,1-2.25-2.94,28.09,28.09,0,0,1-1.73-3,26.07,26.07,0,0,1-2.73-9.59,11,11,0,0,1,1-5.71,7.55,7.55,0,0,1,3.88-3.85,6.74,6.74,0,0,1,7.6,1.75c1.34,1.39,2,3.32,2.63,5.11,0,.13.11.25.17.37a4.54,4.54,0,0,0,8.76-.47c0-.16.07-.32.11-.49l0-.08s0-.05,0-.08a10.2,10.2,0,0,1,.37-1.26,9.82,9.82,0,0,1,2.16-3.47A6.31,6.31,0,0,1,56.18,25a8.11,8.11,0,0,1,3.21.84c5,2.71,4.46,9.83,2.33,14.52a25.79,25.79,0,0,1-6.57,8.41c-.65.59-1.41,1.24-2.09,1.78a7.5,7.5,0,0,0-1.45,10.35,7.13,7.13,0,0,0,11,.57c.59-.59,1.17-1.2,1.73-1.82C70,53.26,75.2,43.75,76,35a23,23,0,0,0-2.18-11.91Z"/><path class="cls-2" d="M113.63,27.84a7.4,7.4,0,0,1,5.64,2.25,8.36,8.36,0,0,1,2.12,6V48.32h-6.13V36.61a3.5,3.5,0,0,0-.76-2.39,2.7,2.7,0,0,0-2.18-.88,2.87,2.87,0,0,0-2.35,1,4.12,4.12,0,0,0-.84,2.74V48.32H103V36.61a3.55,3.55,0,0,0-.76-2.39,2.73,2.73,0,0,0-2.19-.88,2.89,2.89,0,0,0-2.35,1,4.12,4.12,0,0,0-.84,2.74V48.32H90.73V28.4h6.13v1.83q1.68-2.39,5.48-2.39a6.08,6.08,0,0,1,5.36,2.63Q109.58,27.85,113.63,27.84Z"/><path class="cls-2" d="M142.9,45.83a11.22,11.22,0,0,1-15.38,0,10.46,10.46,0,0,1,0-14.94,11.22,11.22,0,0,1,15.38,0A10,10,0,0,1,146,38.36,10,10,0,0,1,142.9,45.83Zm-11-4.09a4.91,4.91,0,0,0,6.7,0,4.92,4.92,0,0,0,0-6.77,4.94,4.94,0,0,0-6.7,0,4.92,4.92,0,0,0,0,6.77Z"/><path class="cls-2" d="M155.29,48.32h-6.52v-20H155v4.83c1-3.69,3.57-5.33,6-5.33a6.36,6.36,0,0,1,2.83.54l-1.6,6.3a7.79,7.79,0,0,0-2.95-.5c-2.46,0-4,1.43-4,7.3v6.89Z"/><path class="cls-2" d="M180.07,28.4h6.13V48.32h-6.13V46c-.78,2-3.48,2.91-6.09,2.91a9.26,9.26,0,0,1-6.91-3,10.5,10.5,0,0,1-2.86-7.47,10.49,10.49,0,0,1,2.86-7.47A9,9,0,0,1,174,27.84c4.65.08,6.2,2.31,6.09,3.42Zm-8.38,13.5a5.34,5.34,0,0,0,7,0,4.71,4.71,0,0,0,1.35-3.54,4.73,4.73,0,0,0-1.35-3.55,5.37,5.37,0,0,0-7,0,4.73,4.73,0,0,0-1.35,3.55A4.71,4.71,0,0,0,171.69,41.9Z"/><path class="cls-2" d="M190.73,48.32V19.24h6.14V48.32Z"/><path class="cls-2" d="M207.14,25.59a3.71,3.71,0,0,1-5.19,0,3.5,3.5,0,0,1,0-5.06,3.73,3.73,0,0,1,5.19,0,3.5,3.5,0,0,1,0,5.06Zm-5.66,22.73V28.4h6.13V48.32Z"/><path class="cls-2" d="M217.92,34.22c0,.39.35.72,1.05,1s1.53.51,2.51.76a22.45,22.45,0,0,1,2.94,1,6,6,0,0,1,2.52,2,5.59,5.59,0,0,1,1,3.45,5.51,5.51,0,0,1-2.45,4.88,10.62,10.62,0,0,1-6.05,1.65q-6.47,0-8.79-4.74l5.31-3a3.33,3.33,0,0,0,3.48,2.35c1.47,0,2.2-.41,2.2-1.24,0-.39-.34-.73-1-1a24,24,0,0,0-2.51-.78,21.76,21.76,0,0,1-2.95-1,6.3,6.3,0,0,1-2.51-1.94,5,5,0,0,1-1-3.22,5.65,5.65,0,0,1,2.31-4.82,9.26,9.26,0,0,1,5.7-1.72,9.79,9.79,0,0,1,4.62,1.1,8.43,8.43,0,0,1,3.35,3.17l-5.23,2.74a3,3,0,0,0-2.74-1.75c-1.17,0-1.72.37-1.72,1.12Z"/><path class="cls-3" d="M73.9,23.05A18.45,18.45,0,0,0,58.77,12.4,17.05,17.05,0,0,0,44.3,18a16.92,16.92,0,0,0-11.75-5.85A18.81,18.81,0,0,0,12.73,27.43a25.62,25.62,0,0,0,2.75,16.89A28.1,28.1,0,0,0,27,56.41a3.6,3.6,0,0,0,4.22-5.65,25.07,25.07,0,0,1-2.26-2.93,30.79,30.79,0,0,1-1.72-3,26.52,26.52,0,0,1-2.73-9.59,11.24,11.24,0,0,1,1-5.7,7.51,7.51,0,0,1,3.88-3.83A6.72,6.72,0,0,1,37,27.44c1.33,1.38,1.94,3.32,2.62,5.1l.17.38a4.53,4.53,0,0,0,8.74-.48c0-.16.07-.32.11-.49l0-.08s0-.05,0-.08a9.8,9.8,0,0,1,2.52-4.72A6.33,6.33,0,0,1,56.29,25a8.11,8.11,0,0,1,3.21.84c5,2.71,4.45,9.82,2.32,14.5a25.93,25.93,0,0,1-6.55,8.4c-.66.59-1.41,1.23-2.09,1.78a7.46,7.46,0,0,0-1.45,10.32,7.11,7.11,0,0,0,10.93.58c.59-.59,1.16-1.2,1.73-1.82C70.09,53.19,75.27,43.7,76.08,35a23.07,23.07,0,0,0-2.18-11.9Z"/><text class="cls-4" transform="translate(164.21 74.62)">and Ch<tspan class="cls-5" x="82.54" y="0">r</tspan><tspan x="91.81" y="0">is</tspan></text></svg>